<?xml version="1.0" standalone="no"?>
<!DOCTYPE svg PUBLIC "-//W3C//DTD SVG 20010904//EN"
 "http://www.w3.org/TR/2001/REC-SVG-20010904/DTD/svg10.dtd">
<svg version="1.0" xmlns="http://www.w3.org/2000/svg"
 width="300.000000pt" height="300.000000pt" viewBox="0 0 300.000000 300.000000"
 preserveAspectRatio="xMidYMid meet">
<metadata>
Created by potrace 1.11, written by Peter Selinger 2001-2013
</metadata>
<g transform="translate(0.000000,300.000000) scale(0.100000,-0.100000)"
fill="#000000" stroke="none">
<path d="M1395 2743 c-27 -2 -60 -6 -72 -8 l-23 -5 0 -733 c0 -617 -2 -742
-15 -790 -55 -210 -193 -294 -470 -285 -105 4 -128 8 -181 32 -138 62 -203
192 -204 404 l0 82 140 0 140 0 0 -78 c0 -107 22 -177 63 -202 45 -28 125 -27
162 2 61 48 60 26 63 786 2 514 0 692 -9 692 -23 0 -176 -86 -250 -141 -505
-375 -663 -1067 -373 -1629 183 -355 504 -592 905 -671 108 -21 357 -16 474
10 103 23 244 75 324 118 64 35 161 97 161 103 0 3 -24 32 -53 64 l-53 59 -78
-12 c-288 -42 -489 34 -581 222 -44 92 -62 163 -76 307 -13 133 -6 563 10 657
40 223 138 359 301 415 88 31 315 33 400 4 117 -39 201 -113 251 -220 66 -142
84 -295 76 -654 -6 -290 -21 -392 -76 -500 -17 -34 -31 -67 -31 -75 0 -7 20
-33 45 -57 l45 -44 25 24 c37 35 137 184 179 268 203 404 172 908 -80 1289
-71 108 -241 281 -344 350 -147 98 -292 159 -458 192 -101 20 -250 31 -337 24z"/>
<path d="M1810 1922 c-90 -45 -117 -150 -125 -482 -5 -239 7 -444 30 -529 22
-75 71 -136 123 -151 83 -23 157 -6 206 46 64 69 93 291 83 644 -9 302 -37
414 -116 467 -43 29 -148 32 -201 5z"/>
</g>
</svg>
